<svg width="35" height="36" viewBox="0 0 35 36" fill="none" xmlns="http://www.w3.org/2000/svg">
<path d="M10.2489 0.269226C10.9696 0.425422 11.7077 0.524072 12.4074 0.746034C16.515 2.04949 19.2169 6.0375 18.9466 10.3525C18.6561 14.99 15.0965 18.7286 10.4901 19.2347C5.28813 19.8055 0.561161 15.9564 0.0469033 10.7298C-0.465528 5.5269 3.2786 0.894922 8.45132 0.329512C8.52805 0.321292 8.60204 0.290236 8.67694 0.27014C9.20033 0.269227 9.72463 0.269226 10.2489 0.269226ZM1.01148 9.74966C0.996864 14.4355 4.78849 18.26 9.4634 18.2737C14.1246 18.2874 17.9573 14.4593 17.9628 9.78619C17.9674 5.11677 14.1803 1.30779 9.51729 1.29043C4.83142 1.27308 1.02609 5.0574 1.01148 9.74966Z" fill="#BBBCBC"/>
<path d="M24.7439 35.3448C24.1108 35.2142 23.4587 35.142 22.8476 34.9438C19.0432 33.7043 16.7231 31.1047 16.1367 27.1395C15.4004 22.1622 18.6486 17.6061 23.5518 16.5328C28.7812 15.3883 34.0526 19.0045 34.8701 24.2978C34.9103 24.5554 34.9559 24.813 34.9998 25.0697C34.9998 25.5721 34.9998 26.0744 34.9998 26.5768C34.9797 26.6746 34.9505 26.7723 34.9395 26.8709C34.501 30.7877 31.7553 33.9947 27.9472 35.0169C27.4129 35.1603 26.8603 35.2379 26.3168 35.3457C25.7916 35.3448 25.2672 35.3448 24.7439 35.3448ZM25.4947 34.3236C30.1787 34.3309 33.9758 30.5356 33.9804 25.8424C33.985 21.1703 30.2043 17.3604 25.5422 17.3403C20.8792 17.3202 17.0473 21.1337 17.03 25.8132C17.0117 30.4872 20.8198 34.3163 25.4947 34.3236Z" fill="#BBBCBC"/>
<path d="M21.0025 4.11288C21.3451 4.38873 21.6894 4.66459 22.0311 4.94227C22.2594 5.12769 22.3599 5.35331 22.2064 5.63373C22.0594 5.90319 21.726 5.98631 21.4711 5.78627C20.6554 5.14596 19.8461 4.49743 19.0478 3.8352C18.7747 3.60867 18.7966 3.24147 19.0916 3.04326C19.9137 2.49064 20.7459 1.95172 21.5816 1.41919C21.8529 1.24655 22.148 1.32237 22.2969 1.56534C22.443 1.80466 22.3754 2.09056 22.1069 2.2769C21.7634 2.5153 21.4099 2.74 21.0098 3.00398C21.609 3.10537 22.1498 3.17114 22.6787 3.28988C27.2293 4.31201 30.6081 6.83032 32.5619 11.1335C33.3219 12.8069 33.6489 14.5835 33.6809 16.4167C33.6882 16.8186 33.4973 17.0534 33.1766 17.0552C32.8597 17.057 32.6752 16.8341 32.6688 16.4231C32.5747 10.1652 28.2268 5.3734 22.2594 4.24259C21.8575 4.16677 21.4519 4.11105 21.0482 4.0462C21.0336 4.06812 21.0181 4.09004 21.0025 4.11288Z" fill="#BBBCBC"/>
<path d="M13.9822 31.7978C13.6744 31.5494 13.3666 31.3009 13.0597 31.0507C12.7308 30.783 12.6596 30.4834 12.8651 30.2332C13.0606 29.9948 13.3648 29.9975 13.679 30.2496C14.4088 30.8333 15.1377 31.4179 15.8648 32.0061C16.2694 32.334 16.2576 32.6884 15.8264 32.9725C15.0564 33.4813 14.2837 33.9846 13.5072 34.4833C13.1939 34.6852 12.8952 34.6377 12.729 34.3783C12.5609 34.117 12.6431 33.8457 12.9656 33.6293C13.2944 33.4082 13.6287 33.1954 14.0252 32.9369C13.447 32.8401 12.9345 32.7816 12.4349 32.6674C6.9516 31.4133 3.25954 28.2063 1.76427 22.691C1.4875 21.6689 1.46923 20.5746 1.35779 19.5114C1.31669 19.114 1.50942 18.904 1.82638 18.8912C2.15338 18.8775 2.35525 19.0857 2.35981 19.4986C2.37717 21.0194 2.62836 22.4965 3.19012 23.9113C4.63516 27.5523 7.26947 29.9372 10.9332 31.2178C11.9115 31.5604 12.9217 31.7768 13.9822 31.7978Z" fill="#BBBCBC"/>
<path d="M9.83882 13.9003C9.83516 13.9926 9.82603 14.0492 9.8306 14.1049C9.85344 14.3634 9.75296 14.5406 9.48532 14.5552C9.20125 14.5708 9.11265 14.3862 9.13457 14.1305C9.15467 13.8994 8.99208 13.9177 8.84319 13.9067C8.25312 13.8619 7.69593 13.7003 7.2246 13.3358C7.03278 13.1878 6.86745 12.9823 6.74779 12.7704C6.60347 12.5146 6.72496 12.1621 6.95971 11.9739C7.22369 11.7629 7.42738 11.9136 7.62376 12.0826C8.04394 12.4452 8.4906 12.7448 9.10351 12.7613C9.11539 12.6681 9.13457 12.5841 9.13457 12.4991C9.13731 11.7684 9.12909 11.0376 9.14005 10.3078C9.14371 10.0959 9.08981 9.98445 8.87242 9.91229C8.56094 9.80907 8.25768 9.67023 7.96904 9.51404C7.15883 9.07377 6.82543 8.36769 6.90764 7.4634C6.98528 6.6057 7.45204 6.03389 8.24489 5.72424C8.40291 5.66213 8.56733 5.5991 8.73358 5.57901C8.99847 5.54704 9.18846 5.49314 9.15832 5.15335C9.15192 5.08119 9.33826 4.92225 9.42686 4.92774C9.55931 4.93687 9.70637 5.03552 9.80594 5.13691C9.86165 5.19354 9.83334 5.33238 9.84521 5.45752C10.1384 5.50685 10.4435 5.53699 10.7367 5.6128C10.987 5.67766 11.24 5.76626 11.462 5.89597C11.7881 6.08596 11.8356 6.38373 11.6428 6.7217C11.4757 7.014 11.2756 7.05419 10.9148 6.90439C10.5823 6.76646 10.2398 6.65411 9.8306 6.50339C9.8306 7.13091 9.8306 7.67349 9.8306 8.21515C9.8306 8.38596 9.80319 8.56316 9.83973 8.72667C9.86531 8.84358 9.95391 8.97969 10.0544 9.03906C10.3165 9.19525 10.6152 9.29299 10.8746 9.45375C11.7387 9.98628 12.1105 10.8805 11.9342 11.9328C11.7625 12.9595 11.1532 13.5724 10.1613 13.8263C10.0617 13.8519 9.96122 13.8729 9.83882 13.9003ZM9.75935 12.732C10.428 12.6087 10.7614 12.2415 10.7879 11.6469C10.8162 11.0121 10.4316 10.506 9.77579 10.3297C9.77031 10.4092 9.76026 10.4868 9.76026 10.5636C9.75844 11.2779 9.75935 11.9922 9.75935 12.732ZM9.18481 6.64863C8.5582 6.63401 8.10788 6.99482 8.07043 7.52369C8.03024 8.0891 8.51618 8.59422 9.18481 8.67277C9.18481 7.99684 9.18481 7.32273 9.18481 6.64863Z" fill="#BBBCBC"/>
<path d="M26.4499 30.5238C26.4462 30.6161 26.4371 30.6727 26.4417 30.7284C26.4645 30.9869 26.364 31.1641 26.0964 31.1787C25.8123 31.1943 25.7237 31.0097 25.7457 30.754C25.7658 30.5229 25.6032 30.5412 25.4543 30.5302C24.8642 30.4854 24.307 30.3238 23.8357 29.9593C23.6439 29.8113 23.4785 29.6058 23.3589 29.3939C23.2146 29.1381 23.336 28.7856 23.5708 28.5974C23.8348 28.3864 24.0385 28.5371 24.2348 28.7061C24.655 29.0687 25.1017 29.3683 25.7146 29.3848C25.7265 29.2916 25.7457 29.2076 25.7457 29.1226C25.7484 28.3919 25.7402 27.6611 25.7511 26.9313C25.7548 26.7194 25.7009 26.608 25.4835 26.5358C25.172 26.4326 24.8688 26.2937 24.5801 26.1375C23.7699 25.6973 23.4365 24.9912 23.5187 24.0869C23.5964 23.2292 24.0631 22.6574 24.856 22.3477C25.014 22.2856 25.1784 22.2226 25.3447 22.2025C25.6096 22.1705 25.7995 22.1166 25.7694 21.7769C25.763 21.7047 25.9493 21.5458 26.0379 21.5512C26.1704 21.5604 26.3175 21.659 26.417 21.7604C26.4727 21.817 26.4444 21.9559 26.4563 22.081C26.7495 22.1303 27.0546 22.1605 27.3478 22.2363C27.5981 22.3012 27.8511 22.3898 28.0731 22.5195C28.3992 22.7095 28.4466 23.0072 28.2539 23.3452C28.0868 23.6375 27.8867 23.6777 27.5259 23.5279C27.1934 23.39 26.8509 23.2776 26.4417 23.1269C26.4417 23.7544 26.4417 24.297 26.4417 24.8387C26.4417 25.0095 26.4143 25.1867 26.4508 25.3502C26.4764 25.4671 26.565 25.6032 26.6655 25.6626C26.9276 25.8188 27.2263 25.9165 27.4857 26.0773C28.3498 26.6098 28.7216 27.504 28.5453 28.5563C28.3736 29.583 27.7643 30.1959 26.7723 30.4498C26.6728 30.4754 26.5723 30.4964 26.4499 30.5238ZM26.3704 29.3555C27.0391 29.2322 27.3725 28.865 27.399 28.2704C27.4273 27.6356 27.0427 27.1295 26.3869 26.9532C26.3814 27.0327 26.3713 27.1103 26.3713 27.1871C26.3695 27.9014 26.3704 28.6157 26.3704 29.3555ZM25.7959 23.2721C25.1693 23.2575 24.719 23.6183 24.6815 24.1472C24.6413 24.7126 25.1273 25.2177 25.7959 25.2963C25.7959 24.6203 25.7959 23.9462 25.7959 23.2721Z" fill="#BBBCBC"/>
<path d="M9.44679 17.5503C5.79309 17.5338 2.59885 14.9379 1.89369 11.413C1.81605 11.0239 1.95488 10.758 2.2691 10.695C2.55774 10.6366 2.78154 10.8192 2.87745 11.1965C3.57804 13.9404 5.27153 15.7252 8.03463 16.3701C11.6189 17.2068 15.2023 14.9297 16.049 11.3472C16.1751 10.8119 16.3979 10.6009 16.7359 10.6941C17.062 10.7836 17.1552 11.0631 17.0319 11.5801C16.1897 15.1114 13.0694 17.5667 9.44679 17.5503Z" fill="#BBBCBC"/>
<path d="M9.49989 1.99201C12.9746 2.00023 16.0254 4.33038 16.9571 7.68813C17.0676 8.08455 16.9653 8.34305 16.6602 8.4417C16.3433 8.544 16.1158 8.37594 15.9834 7.95485C15.207 5.47399 13.5856 3.84718 11.0618 3.20869C7.59814 2.33181 4.0303 4.40437 3.01183 7.8361C2.85655 8.36041 2.65468 8.53304 2.31398 8.43622C1.97053 8.33757 1.89015 8.07816 2.04178 7.55568C2.98991 4.28105 6.06998 1.98379 9.49989 1.99201Z" fill="#BBBCBC"/>
<path d="M25.8125 33.623C21.9049 33.6202 18.7646 31.1175 17.9498 27.6053C17.8566 27.2044 17.9717 26.9331 18.2677 26.8536C18.591 26.7677 18.8221 26.9504 18.9335 27.3624C19.6889 30.1529 21.461 31.9039 24.2963 32.4803C27.7335 33.1791 31.2127 30.9256 32.0503 27.514C32.0777 27.4035 32.096 27.2902 32.1316 27.1824C32.2257 26.8947 32.4751 26.7486 32.7372 26.818C33.0076 26.8892 33.1948 27.1331 33.098 27.419C32.8368 28.1918 32.6322 29.0093 32.2257 29.7035C30.7322 32.2592 28.4441 33.5234 25.8125 33.623Z" fill="#BBBCBC"/>
<path d="M25.5332 18.0628C29.0755 18.0728 32.151 20.4669 33.0278 23.8877C33.09 24.1307 33.089 24.3407 32.8945 24.5134C32.5949 24.7783 32.1793 24.623 32.0624 24.1882C31.8431 23.3762 31.5225 22.6107 31.0201 21.9357C29.3942 19.7499 27.2075 18.7606 24.5248 19.1625C21.7224 19.5818 19.9047 21.2662 19.0241 23.9589C18.8506 24.4887 18.6478 24.6842 18.3053 24.5773C17.9856 24.4768 17.9052 24.1946 18.0495 23.6794C18.9776 20.3628 22.0549 18.0527 25.5332 18.0628Z" fill="#BBBCBC"/>
</svg>
