<svg width="35" height="26" viewBox="0 0 35 26" fill="none" xmlns="http://www.w3.org/2000/svg">
<path d="M0 1.70496C0.235574 0.969936 0.672026 0.443088 1.46732 0.299735C1.62254 0.27143 1.78416 0.270516 1.94303 0.270516C11.0227 0.269603 20.1023 0.268692 29.182 0.269605C30.4037 0.269605 31.1122 0.97998 31.114 2.20168C31.1159 3.70826 31.1159 5.21575 31.114 6.72232C31.114 7.13869 30.9397 7.37244 30.6329 7.37974C30.3142 7.38796 30.1343 7.14691 30.1298 6.70954C30.1288 6.61823 30.1298 6.52693 30.1298 6.43562C30.1298 5.05413 30.1307 3.67264 30.1279 2.29116C30.1279 2.14415 30.1252 1.99167 30.0905 1.85014C30.0092 1.51596 29.7892 1.3233 29.444 1.28495C29.3427 1.27399 29.2395 1.27673 29.1372 1.27673C20.0923 1.27673 11.0464 1.27673 2.00147 1.27673C1.91016 1.27673 1.81885 1.2749 1.72846 1.28038C1.30753 1.30869 1.04182 1.57348 1.00713 1.99989C0.999823 2.09028 1.00074 2.1825 1.00074 2.27381C1.00074 6.72598 1.00074 11.1781 1.00074 15.6303C1.00074 15.7216 0.999823 15.8129 1.00713 15.9042C1.04182 16.3379 1.32397 16.6183 1.7595 16.6347C2.10099 16.6475 2.4434 16.631 2.78489 16.6411C3.09807 16.6511 3.29165 16.8401 3.30078 17.1195C3.30991 17.4017 3.13186 17.6208 2.81867 17.6281C2.34204 17.64 1.85629 17.6564 1.38879 17.5816C0.787988 17.4857 0.372538 17.0995 0.133311 16.5333C0.0894837 16.4302 0.0456566 16.3279 0.00274191 16.2256C2.67509e-06 11.3872 0 6.5461 0 1.70496Z" fill="#BBBCBC"/>
<path d="M13.6076 7.96135C13.604 6.59813 13.9573 6.17355 15.3279 5.84758C15.3379 5.77545 15.326 5.68049 15.3662 5.62387C15.4292 5.53531 15.5278 5.41387 15.6127 5.41295C15.7031 5.41204 15.8684 5.53074 15.872 5.60379C15.8839 5.85397 16.0391 5.84575 16.2135 5.88045C16.5121 5.9398 16.8171 6.0028 17.0956 6.12059C17.4069 6.25207 17.4727 6.51687 17.3202 6.79809C17.1714 7.07384 16.9677 7.05832 16.7139 6.94053C16.4729 6.82914 16.2126 6.75883 15.9177 6.65565C15.9177 7.12132 15.9177 7.51486 15.9177 7.96044C16.0674 7.96044 16.2108 7.96044 16.3542 7.96044C21.8801 7.96044 27.4051 7.95953 32.9311 7.96409C33.2023 7.96409 33.4826 7.97779 33.7419 8.04901C34.5071 8.2581 34.9956 8.9347 34.9974 9.76651C35.0019 11.7762 34.9992 13.785 34.9992 15.7947C34.9992 18.3294 35.0001 20.8641 34.9992 23.3988C34.9983 24.6132 34.2797 25.3354 33.0653 25.3354C23.9848 25.3363 14.9051 25.3363 5.82454 25.3354C4.59827 25.3354 3.88607 24.6287 3.88516 23.4097C3.88333 18.9 3.88333 14.3903 3.88516 9.88064C3.88607 8.68177 4.59553 7.96592 5.79988 7.96318C8.26063 7.9577 10.7214 7.96135 13.1821 7.96135C13.3173 7.96135 13.4506 7.96135 13.6076 7.96135ZM19.4513 24.3283C19.6111 24.3283 19.77 24.3283 19.9298 24.3283C24.2915 24.3283 28.6533 24.3274 33.0151 24.3292C33.3045 24.3292 33.6287 24.3502 33.7876 24.0781C33.9163 23.8571 33.9903 23.5713 33.9903 23.3138C34.0021 18.8745 33.9994 14.4351 33.9985 9.99478C33.9985 9.19492 33.7656 8.96665 32.9539 8.96665C23.9455 8.96665 14.9371 8.96665 5.92863 8.96665C5.10412 8.96665 4.86855 9.19949 4.86855 10.0213C4.86855 14.4378 4.86855 18.8544 4.86855 23.2718C4.86855 24.1 5.0959 24.3283 5.92041 24.3283C10.4319 24.3283 14.9416 24.3283 19.4513 24.3283ZM15.3717 7.94766C15.3717 7.54682 15.3717 7.14871 15.3717 6.70496C15.1964 6.76522 15.0311 6.79992 14.8877 6.87662C14.5782 7.04006 14.4677 7.36785 14.559 7.72121C14.6494 8.07275 14.9261 7.93488 15.1407 7.95953C15.2064 7.96775 15.2749 7.95314 15.3717 7.94766Z" fill="#BBBCBC"/>
<path d="M15.5514 1.69668C19.1289 1.69668 22.7063 1.70489 26.2828 1.68846C26.8727 1.68572 27.2434 1.89755 27.4872 2.43627C27.7985 3.1229 28.319 3.63788 29.002 3.95472C29.5161 4.19303 29.7279 4.56557 29.7078 5.12072C29.6877 5.66765 29.7078 6.21641 29.7014 6.76426C29.6968 7.15232 29.5106 7.37876 29.212 7.38424C28.9015 7.38972 28.7107 7.15141 28.7089 6.74691C28.7061 6.23285 28.6998 5.71879 28.7125 5.20564C28.7171 5.01115 28.6614 4.89884 28.4806 4.80753C27.6515 4.38752 27.0316 3.74928 26.6125 2.92203C26.5202 2.74032 26.4134 2.68371 26.218 2.68371C19.1088 2.68828 11.9996 2.68828 4.89124 2.6828C4.68854 2.6828 4.59175 2.75676 4.50319 2.93207C4.08317 3.76115 3.45588 4.39117 2.63138 4.81666C2.46885 4.90067 2.40402 4.9938 2.40493 5.18189C2.41133 7.69377 2.40584 10.2056 2.41863 12.7166C2.41954 12.8399 2.53185 12.9869 2.6332 13.0782C2.76651 13.1978 2.94913 13.2599 3.09248 13.3704C3.3244 13.5493 3.36732 13.7904 3.21483 14.0378C3.066 14.2771 2.82769 14.3218 2.58572 14.2086C2.3191 14.0835 2.02692 13.9648 1.8233 13.7639C1.63704 13.5804 1.4462 13.2928 1.44346 13.049C1.41698 10.3207 1.4252 7.59242 1.42794 4.86323C1.42794 4.4843 1.61877 4.20399 1.95479 4.04785C2.77564 3.66619 3.36367 3.06356 3.74168 2.24178C3.93891 1.81355 4.30231 1.69211 4.75154 1.69302C8.35089 1.69942 11.9512 1.69668 15.5514 1.69668Z" fill="#BBBCBC"/>
<path d="M20.7696 6.95691C20.6545 7.08383 20.5477 7.30114 20.3934 7.34406C20.2345 7.38788 20.0144 7.28836 19.8501 7.19797C19.7588 7.14775 19.7277 6.98704 19.6684 6.87747C18.7772 5.24672 17.4085 4.35555 15.5504 4.36012C13.6932 4.36468 12.3282 5.26224 11.4434 6.89573C11.405 6.96604 11.3776 7.04183 11.3375 7.11031C11.1804 7.3751 10.9174 7.46367 10.6709 7.33767C10.4226 7.21075 10.3285 6.95052 10.4536 6.66929C10.9558 5.53708 11.7529 4.66783 12.8276 4.06154C15.6371 2.47735 19.2191 3.6187 20.6043 6.53416C20.6582 6.64555 20.6947 6.76425 20.7696 6.95691Z" fill="#BBBCBC"/>
<path d="M19.414 23.9083C15.8484 23.9083 12.2828 23.9001 8.71727 23.9166C8.12742 23.9193 7.75762 23.7084 7.51291 23.1688C7.19607 22.4712 6.66467 21.9562 5.9689 21.633C5.49958 21.4147 5.2914 21.0714 5.29322 20.5537C5.30144 17.9505 5.30144 15.3482 5.29322 12.7451C5.2914 12.2292 5.49776 11.8877 5.96982 11.6676C6.68659 11.3334 7.21799 10.792 7.5467 10.0707C7.76857 9.58398 8.12011 9.37854 8.64879 9.37854C15.8484 9.38402 23.048 9.38402 30.2476 9.37945C30.7599 9.37945 31.1078 9.57942 31.3251 10.0551C31.6584 10.7865 32.1989 11.3316 32.9257 11.6749C33.3786 11.8895 33.584 12.22 33.5822 12.7277C33.5722 15.3419 33.5722 17.956 33.5822 20.5701C33.584 21.0769 33.3822 21.4111 32.9275 21.6247C32.1998 21.9671 31.6602 22.5113 31.326 23.2427C31.1096 23.7166 30.7663 23.9138 30.2486 23.9129C26.6364 23.9047 23.0252 23.9083 19.414 23.9083ZM19.4505 10.393C15.9087 10.393 12.3668 10.3957 8.82592 10.3875C8.59034 10.3866 8.46525 10.456 8.3566 10.6705C7.95301 11.4658 7.34491 12.073 6.55692 12.4857C6.36061 12.5889 6.28391 12.6958 6.28483 12.9249C6.29487 15.4131 6.29396 17.9003 6.28574 20.3884C6.28483 20.6003 6.34966 20.7098 6.53866 20.8066C7.3303 21.2148 7.94114 21.8192 8.34564 22.6136C8.4689 22.8556 8.60952 22.925 8.87066 22.925C12.4125 22.9158 15.9543 22.9186 19.4952 22.9186C22.9914 22.9186 26.4876 22.9158 29.9838 22.9241C30.2495 22.925 30.4065 22.8665 30.538 22.6054C30.9334 21.8211 31.5387 21.2248 32.3176 20.8185C32.5112 20.7171 32.5979 20.614 32.597 20.3802C32.587 17.8921 32.5879 15.4049 32.5952 12.9167C32.5961 12.7058 32.5294 12.5935 32.3404 12.4958C31.5616 12.0922 30.9507 11.5014 30.5499 10.7189C30.4138 10.4541 30.2568 10.3848 29.9728 10.3857C26.4657 10.3966 22.9585 10.393 19.4505 10.393Z" fill="#BBBCBC"/>
<path d="M13.8431 16.6356C13.8558 13.5339 16.3878 11.0147 19.4713 11.0366C22.5648 11.0585 25.052 13.5923 25.0301 16.6995C25.0082 19.7876 22.499 22.2684 19.4074 22.2574C16.3349 22.2474 13.8303 19.7163 13.8431 16.6356ZM19.4238 21.2576C21.9594 21.2695 24.0403 19.1977 24.0449 16.6566C24.0494 14.1292 21.9923 12.0556 19.4704 12.0446C16.9211 12.0337 14.8438 14.0872 14.8356 16.6274C14.8283 19.1749 16.88 21.2457 19.4238 21.2576Z" fill="#BBBCBC"/>
<path d="M19.6732 20.0232C19.6732 20.0232 19.6842 20.4268 19.3509 20.4268C19.0176 20.4268 18.9994 20.2058 18.9263 19.9702C18.6743 19.8972 18.2771 19.8278 17.9247 19.6635C17.6699 19.5448 17.4398 19.3274 17.2609 19.1037C17.0792 18.8764 17.1787 18.6216 17.3841 18.4335C17.5868 18.2473 17.7621 18.3724 17.9247 18.5121C18.2488 18.7915 18.5985 19.0133 19.0852 19.038C19.0852 18.3596 19.0907 17.6912 19.077 17.0228C19.0751 16.9525 18.9793 16.8594 18.9044 16.8201C18.7236 16.7261 18.5255 16.6667 18.3419 16.5763C17.5549 16.1874 17.2609 15.6368 17.3677 14.7739C17.4517 14.0992 17.9603 13.5951 18.7273 13.4262C18.8368 13.4025 18.9473 13.3787 19.0569 13.355C19.035 13.3303 19.014 13.3057 18.9921 13.281C19.1117 13.1505 19.2313 13.0199 19.3518 12.8893C19.4714 13.0025 19.591 13.1158 19.7116 13.229C19.6915 13.2491 19.6714 13.2701 19.6513 13.2902C20.0311 13.3888 20.4183 13.4673 20.789 13.5942C21.0273 13.6755 21.1917 13.8581 21.1177 14.1521C21.0364 14.4772 20.8109 14.5867 20.5023 14.458C20.3242 14.384 20.1453 14.3119 19.9636 14.2507C19.8686 14.2188 19.7654 14.2133 19.6312 14.1896C19.6312 14.7821 19.6266 15.3501 19.6376 15.918C19.6385 15.9847 19.7143 16.0696 19.7782 16.1098C19.8933 16.181 20.0266 16.2212 20.1489 16.2805C21.0337 16.7087 21.3871 17.3342 21.2848 18.2865C21.1907 19.1613 20.7187 19.6589 19.7673 19.889C19.7353 19.8972 19.7043 19.9136 19.6732 19.9264C19.6897 19.9593 19.6732 20.0232 19.6732 20.0232ZM19.5856 18.9796C20.0841 18.9275 20.3571 18.6417 20.379 18.1815C20.4046 17.651 20.1033 17.2548 19.5856 17.1543C19.5856 17.7569 19.5856 18.3578 19.5856 18.9796ZM19.1226 15.8486C19.1226 15.3035 19.1226 14.7776 19.1226 14.2498C18.6159 14.2809 18.3173 14.511 18.268 14.8899C18.2086 15.3409 18.4963 15.6715 19.1226 15.8486Z" fill="#BBBCBC"/>
</svg>
