<svg width="35" height="30" viewBox="0 0 35 30" fill="none" xmlns="http://www.w3.org/2000/svg">
<path d="M35 28.2011C34.643 28.622 34.3189 29.0776 33.9199 29.4538C33.5163 29.8345 32.8918 29.7998 32.4874 29.4026C31.284 28.2203 30.0935 27.0242 28.9111 25.8209C28.545 25.4484 28.5468 24.9846 28.7321 24.5134C26.1529 24.5134 23.6028 24.5134 21.0126 24.5134C21.1422 25.0558 21.2756 25.6127 21.4134 26.1852C22.0087 26.1852 22.5775 26.1815 23.1463 26.1861C24.1689 26.1943 24.8089 26.8352 24.8153 27.8542C24.8171 28.1052 24.8217 28.3563 24.8135 28.6074C24.7971 29.1041 24.4976 29.4154 24.0091 29.4501C23.9187 29.4565 23.8274 29.4565 23.7361 29.4565C19.2943 29.4565 14.8525 29.4565 10.4098 29.4565C10.3075 29.4565 10.2043 29.4565 10.103 29.4483C9.67477 29.4118 9.37074 29.1452 9.33696 28.7151C9.30683 28.3298 9.30135 27.9363 9.347 27.5547C9.44287 26.7567 10.0473 26.218 10.8498 26.1916C11.3849 26.1733 11.9208 26.177 12.4558 26.1916C12.6704 26.197 12.7544 26.1231 12.7964 25.9158C12.8922 25.4493 13.0155 24.9873 13.1433 24.4587C12.9835 24.4587 12.8557 24.4587 12.727 24.4587C9.20731 24.4587 5.68763 24.455 2.16887 24.4623C1.54711 24.4632 0.998387 24.3162 0.558313 23.857C0.204063 23.4872 0.0105037 23.0435 0.0105037 22.5313C0.0068516 17.4987 0.00776492 12.4662 0.00867794 7.43274C0.00867794 7.07393 0.203151 6.84933 0.492576 6.84933C0.791133 6.84933 0.972822 7.07667 0.972822 7.46744C0.973735 12.3859 0.972822 17.3043 0.976474 22.2236C0.976474 22.4153 0.983778 22.6162 1.03765 22.7979C1.15634 23.196 1.44668 23.4169 1.85388 23.4763C1.96527 23.4927 2.08122 23.4854 2.19535 23.4854C7.5374 23.4854 12.8795 23.4854 18.2206 23.4854C18.321 23.4854 18.4215 23.4854 18.626 23.4854C16.7196 22.1907 15.5537 20.5044 15.2223 18.3004C14.8899 16.0918 15.4752 14.1251 16.8493 12.3594C16.7223 12.4562 16.5954 12.552 16.4694 12.6497C16.3343 12.7547 16.201 12.8615 16.0677 12.9674C15.0314 13.7873 13.9961 14.609 12.958 15.428C12.5608 15.7412 12.4348 15.7375 12.0331 15.4198C11.2817 14.8263 10.5321 14.232 9.78068 13.6385C9.69303 13.5691 9.60082 13.5043 9.49582 13.4258C8.55633 14.169 7.62779 14.9021 6.70017 15.6353C6.07475 16.1301 5.45025 16.6268 4.8221 17.118C4.50893 17.3636 4.23411 17.3554 4.04421 17.108C3.86252 16.8706 3.93008 16.5876 4.23411 16.3465C5.85015 15.0656 7.46802 13.7855 9.08588 12.5064C9.42735 12.2361 9.57799 12.2379 9.93224 12.5173C10.7813 13.1866 11.6286 13.8595 12.4996 14.5488C13.1333 14.0485 13.7587 13.5573 14.3823 13.0633C15.33 12.3137 16.275 11.5623 17.2227 10.8136C17.7449 10.401 17.8225 10.4028 18.3402 10.8091C18.3941 10.8511 18.4479 10.8931 18.4425 10.8894C19.2204 10.589 19.9453 10.2604 20.6994 10.0303C21.5093 9.78285 22.3566 9.72167 23.202 9.83763C23.517 9.88054 23.7553 9.8075 24.0055 9.6039C25.0299 8.7694 26.0734 7.95773 27.1097 7.13693C27.2028 7.06297 27.2932 6.98628 27.4402 6.86394C27.0686 6.83015 26.7783 6.80642 26.488 6.77629C26.1739 6.74342 25.9776 6.54712 25.984 6.28234C25.9913 6.00205 26.2168 5.79662 26.5427 5.81488C27.2357 5.85505 27.9287 5.90527 28.6208 5.96644C28.9768 5.9984 29.133 6.17461 29.1238 6.52795C29.1056 7.24649 29.0791 7.96503 29.0426 8.68266C29.0271 8.994 28.8171 9.183 28.5404 9.17387C28.2574 9.16474 28.0857 8.973 28.0812 8.64797C28.0766 8.32933 28.0803 8.00977 28.0803 7.61078C26.9929 8.46993 25.9401 9.30169 24.8591 10.1554C27.2905 11.1049 28.9449 12.7565 29.6132 15.2719C30.2779 17.7736 29.7027 20.0305 28.0565 22.062C28.5103 22.5139 28.9494 22.9732 29.4178 23.4005C29.5 23.4753 29.7209 23.4607 29.8479 23.4123C30.1975 23.2772 30.5198 23.3521 30.8759 23.3996C31.4265 23.4735 32.0044 23.4671 32.5531 23.3831C32.9174 23.3274 33.1037 22.9677 33.1475 22.5861C33.1603 22.4738 33.153 22.3578 33.153 22.2437C33.153 15.659 33.153 9.07435 33.153 2.48968C33.153 1.59493 32.8033 1.23976 31.9186 1.23976C22.0206 1.23885 12.1226 1.23976 2.22548 1.23976C1.32159 1.23976 0.970996 1.59675 0.970083 2.51068C0.970083 3.05849 0.972823 3.6063 0.968257 4.15411C0.964605 4.53301 0.795697 4.72839 0.487098 4.72839C0.182151 4.72748 0.00685183 4.5257 0.0050258 4.15228C0.00137373 3.50221 -0.00501699 2.85123 0.00685222 2.20117C0.0269386 1.15394 0.847739 0.321268 1.89223 0.271965C1.9607 0.269226 2.02918 0.269226 2.09766 0.269226C12.0751 0.269226 22.0525 0.269226 32.03 0.269226C33.0708 0.269226 33.8542 0.848076 34.0687 1.79122C34.1208 2.0213 34.1189 2.2669 34.1189 2.5052C34.1217 9.02139 34.0998 15.5376 34.1381 22.0538C34.1463 23.406 33.5081 24.3893 32.0583 24.487C32.134 24.5783 32.1879 24.655 32.2536 24.7207C32.953 25.4237 33.6624 26.1176 34.3508 26.8316C34.591 27.0808 34.7818 27.3776 34.9954 27.6533C35 27.8359 35 28.0185 35 28.2011ZM16.1115 17.1682C16.1006 20.7053 18.9391 23.5712 22.4771 23.5959C25.9894 23.6196 28.8992 20.7399 28.9102 17.2285C28.9211 13.6686 26.0853 10.7954 22.5364 10.7698C18.9985 10.7452 16.1225 13.6093 16.1115 17.1682ZM23.8493 28.4641C23.8493 28.3317 23.8484 28.2413 23.8493 28.1509C23.8548 27.2872 23.7297 27.1612 22.8688 27.1612C18.9729 27.1612 15.078 27.1612 11.1822 27.1612C11.0571 27.1612 10.9046 27.121 10.8124 27.1776C10.6325 27.2863 10.3961 27.4241 10.3449 27.5976C10.2664 27.8633 10.3239 28.1701 10.3239 28.4631C14.8406 28.4641 19.3244 28.4641 23.8493 28.4641ZM13.7395 26.1541C15.9709 26.1541 18.1695 26.1541 20.4027 26.1541C20.274 25.62 20.1626 25.1215 20.0265 24.6294C20.0065 24.5564 19.8713 24.466 19.7892 24.4651C17.9777 24.4559 16.1672 24.4559 14.3558 24.4651C14.2709 24.4651 14.1294 24.5518 14.1102 24.6239C13.9742 25.1252 13.8619 25.6346 13.7395 26.1541ZM30.3363 24.2341C30.1473 24.4212 29.9839 24.6075 29.7958 24.7654C29.5566 24.9663 29.5566 25.1179 29.7876 25.3434C30.7481 26.2829 31.6839 27.247 32.6417 28.1883C33.3538 28.8886 33.0881 28.9197 33.8825 28.1564C34.0368 28.0076 34.0532 27.8925 33.8916 27.7318C32.785 26.6325 31.6858 25.526 30.5828 24.424C30.5226 24.3637 30.4459 24.3171 30.3363 24.2341ZM27.9862 23.4689C27.7707 23.237 27.5589 23.0088 27.3425 22.7751C27.0485 22.996 26.7564 23.216 26.4195 23.4689C26.9919 23.4689 27.5041 23.4689 27.9862 23.4689Z" fill="#BBBCBC"/>
<path d="M31.0283 5.34186C21.7128 5.34186 12.4429 5.34186 3.13381 5.34186C3.12742 5.4642 3.11555 5.5838 3.11555 5.70341C3.11464 10.0512 3.11464 14.3999 3.11464 18.7477C3.11464 19.2471 3.12194 19.2526 3.64053 19.2526C7.11456 19.2526 10.5886 19.2526 14.0626 19.2535C14.2096 19.2535 14.3603 19.2553 14.5036 19.2836C14.7492 19.3329 14.9071 19.5219 14.8615 19.7474C14.8277 19.9154 14.6625 20.0779 14.5182 20.1948C14.4369 20.2596 14.2781 20.2377 14.1539 20.2377C10.6233 20.2395 7.09173 20.2404 3.5611 20.2386C2.59605 20.2386 2.13862 19.7775 2.13862 18.8107C2.13771 13.7891 2.13771 8.76749 2.13862 3.7459C2.13862 2.83471 2.56774 2.40742 3.48076 2.40742C12.536 2.40651 21.5913 2.40651 30.6466 2.40742C31.5706 2.40742 31.9915 2.82376 31.9915 3.73677C31.9924 8.79214 31.9924 13.8484 31.9915 18.9038C31.9915 19.7821 31.4254 20.3025 30.5508 20.2386C30.2111 20.214 30.0075 20.0277 30.0084 19.7438C30.0093 19.4589 30.2075 19.2809 30.5544 19.2544C31.0246 19.2179 31.0255 19.2179 31.0255 18.7614C31.0255 14.4136 31.0255 10.0649 31.0255 5.7171C31.0283 5.60389 31.0283 5.49159 31.0283 5.34186ZM31.0118 4.34302C31.0182 4.21428 31.0274 4.10289 31.0274 3.99151C31.0264 3.33505 31.0894 3.38983 30.4165 3.38983C21.5019 3.38983 12.5872 3.38983 3.67158 3.38983C3.55745 3.38983 3.43511 3.36518 3.33285 3.40078C3.24885 3.43 3.13655 3.52495 3.12833 3.60073C3.10186 3.84542 3.11829 4.09376 3.11829 4.34302C12.4411 4.34302 21.7155 4.34302 31.0118 4.34302Z" fill="#BBBCBC"/>
<path d="M22.5355 11.5321C25.6744 11.544 28.1852 14.0813 28.1715 17.2284C28.1578 20.3436 25.6114 22.869 22.4962 22.8572C19.3874 22.8453 16.8702 20.2971 16.8784 17.1718C16.8867 14.0475 19.4212 11.5202 22.5355 11.5321ZM17.9028 17.1819C17.8992 19.7447 19.9635 21.8264 22.5136 21.83C25.0654 21.8346 27.1416 19.7611 27.1462 17.2019C27.1508 14.6373 25.0938 12.5666 22.5346 12.5583C19.9781 12.551 17.9065 14.619 17.9028 17.1819Z" fill="#BBBCBC"/>
<path d="M22.8844 20.5217C22.7584 20.6586 22.6333 20.7947 22.5074 20.9316C22.3941 20.8056 22.2809 20.6796 22.1677 20.5536C22.1905 20.5272 22.2124 20.5016 22.2353 20.4751C21.9924 20.4276 21.734 20.4185 21.5122 20.3236C21.1835 20.182 20.8603 20.0077 20.5791 19.7885C20.454 19.6908 20.3773 19.4471 20.3882 19.2772C20.4129 18.881 20.7589 18.7486 21.0657 18.9988C21.4035 19.2745 21.7486 19.5228 22.2535 19.5411C22.2535 18.8527 22.2581 18.1835 22.2453 17.5151C22.2444 17.4567 22.1403 17.3818 22.0682 17.3462C21.8956 17.2604 21.7094 17.202 21.5359 17.1171C20.7781 16.7464 20.4403 16.1748 20.5307 15.4261C20.6229 14.661 21.0949 14.158 21.9139 13.9836C22.1193 13.9398 22.2828 13.9206 22.28 13.6485C22.2791 13.5873 22.4334 13.4769 22.5174 13.4759C22.6032 13.475 22.7073 13.5672 22.7712 13.6449C22.8141 13.6969 22.8004 13.7955 22.8077 13.8439C23.2012 13.9507 23.5774 14.0356 23.9417 14.1571C24.1745 14.2347 24.3215 14.4081 24.2676 14.6848C24.2037 15.0125 23.9746 15.1349 23.6632 15.0135C23.4523 14.9304 23.2396 14.8528 23.0241 14.7834C22.9648 14.7642 22.8926 14.7806 22.7904 14.7806C22.7904 15.3549 22.7849 15.9119 22.7977 16.4679C22.7995 16.5327 22.8853 16.6131 22.9529 16.6542C23.0689 16.7245 23.2022 16.7646 23.3245 16.8249C24.1654 17.2385 24.5388 17.8822 24.442 18.7468C24.3398 19.6589 23.896 20.1519 22.962 20.3902C22.9182 20.4012 22.8744 20.4112 22.8306 20.4213C22.8479 20.4532 22.8662 20.487 22.8844 20.5217ZM22.7612 19.4872C23.2314 19.4434 23.4998 19.1695 23.5281 18.7221C23.5619 18.1752 23.2852 17.7945 22.7612 17.6804C22.7612 18.2839 22.7612 18.8846 22.7612 19.4872ZM22.2882 14.7898C21.7249 14.861 21.461 15.0929 21.4455 15.4992C21.4291 15.9429 21.7231 16.2524 22.2882 16.3693C22.2882 15.848 22.2882 15.3303 22.2882 14.7898Z" fill="#BBBCBC"/>
</svg>
